<svg xmlns="http://www.w3.org/2000/svg" viewBox="0 0 595.28 841.89"><defs><style>.cls-1{font-size:30.62px;font-family:imagine-font, Imagine Font;letter-spacing:0.03em;}.cls-1,.cls-6{fill:#61bfd3;}.cls-2,.cls-4{fill:#010101;}.cls-2{letter-spacing:0.02em;}.cls-3{fill:#ef3d5b;}.cls-4{letter-spacing:0.02em;}.cls-5{letter-spacing:0.01em;}</style></defs><title>Artboard 1</title><g id="typo"><text class="cls-1" transform="translate(147.39 560.89)">Make<tspan class="cls-2" x="75.72" y="0" xml:space="preserve">  </tspan><tspan class="cls-3" x="89.74" y="0">DESIgn </tspan><tspan class="cls-4" x="201.63" y="0"> </tspan><tspan class="cls-5" x="208.64" y="0">Yours</tspan></text></g><g id="red"><path class="cls-3" d="M194.55,330.69l-1.43,119.49,51.86-59,7.18,8.63,19.56,23.46-.29.34-70.87,86.18H151.1q0-3.27,0-6.53v0q0-145.12,0-290.23h0l38.55.26s18.75.18,18.81.23c3.59,3.63,21.88,26.4,21.88,26.4L301,328.72q47-57.87,94.1-115.72h52.78L300.62,389.26,196,264.7a.36.36,0,0,0-.62.23Z"/><path class="cls-6" d="M447.89,280.43V509.78H405.25l.18-116.61-98,116.61H258.13l147.3-179.35Z"/></g></svg>