<svg xmlns="http://www.w3.org/2000/svg" xmlns:xlink="http://www.w3.org/1999/xlink" viewBox="0 0 173.28 128.33"><defs><style>.cls-1{mask:url(#mask);filter:url(#luminosity-noclip-3);}.cls-16,.cls-2,.cls-4{mix-blend-mode:multiply;}.cls-2{fill:url(#linear-gradient);}.cls-3{mask:url(#mask-2);filter:url(#luminosity-noclip-4);}.cls-4{fill:url(#linear-gradient-2);}.cls-5{isolation:isolate;}.cls-6{fill:#e3eaff;}.cls-7{fill:url(#linear-gradient-3);}.cls-8{fill:#2bb7e2;}.cls-9{fill:url(#linear-gradient-4);}.cls-10{fill:url(#linear-gradient-5);}.cls-11{fill:url(#linear-gradient-6);}.cls-12{fill:url(#linear-gradient-7);}.cls-13{mask:url(#mask-3);}.cls-14{fill:#21a3c1;}.cls-15{mask:url(#mask-4);}.cls-16{opacity:0.5;fill:url(#linear-gradient-8);}.cls-17{fill:#dc847f;}.cls-18{fill:#da4f4f;}.cls-19{fill:#f39e97;}.cls-20{fill:#361410;}.cls-21{fill:#ac66cc;}.cls-22{fill:#fff;}.cls-23{opacity:0.36;}.cls-24{fill:#b2a1f5;}.cls-25{opacity:0.2;}.cls-26{fill:#223663;}.cls-27{fill:#ffa331;}.cls-28{fill:#ffc077;}.cls-29{fill:#cac3fb;}.cls-30{fill:#8dbcec;}.cls-31{fill:#b6eb7a;}.cls-32{fill:#ffc93c;}.cls-33{filter:url(#luminosity-noclip-2);}.cls-34{filter:url(#luminosity-noclip);}</style><filter id="luminosity-noclip" x="10.41" y="-8725.57" width="49.01" height="32766" filterUnits="userSpaceOnUse" color-interpolation-filters="sRGB"><feFlood flood-color="#fff" result="bg"/><feBlend in="SourceGraphic" in2="bg"/></filter><mask id="mask" x="10.41" y="-8725.57" width="49.01" height="32766" maskUnits="userSpaceOnUse"><g class="cls-34"/></mask><linearGradient id="linear-gradient" x1="478.6" y1="60.56" x2="523.34" y2="60.56" gradientTransform="matrix(-0.99, 0.15, 0.15, 0.99, 519.85, -42.08)" gradientUnits="userSpaceOnUse"><stop offset="0" stop-color="#333"/><stop offset="1" stop-color="#fff"/></linearGradient><filter id="luminosity-noclip-2" x="22.23" y="-8725.57" width="3.75" height="32766" filterUnits="userSpaceOnUse" color-interpolation-filters="sRGB"><feFlood flood-color="#fff" result="bg"/><feBlend in="SourceGraphic" in2="bg"/></filter><mask id="mask-2" x="22.23" y="-8725.57" width="3.75" height="32766" maskUnits="userSpaceOnUse"><g class="cls-33"/></mask><linearGradient id="linear-gradient-2" x1="508.38" y1="51.55" x2="510.43" y2="51.55" xlink:href="#linear-gradient"/><linearGradient id="linear-gradient-3" x1="442.34" y1="65.72" x2="448.49" y2="65.72" gradientTransform="matrix(-0.99, 0.15, 0.15, 0.99, 519.85, -42.08)" gradientUnits="userSpaceOnUse"><stop offset="0.02" stop-color="#edb8b1"/><stop offset="0.99" stop-color="#ebada5"/></linearGradient><linearGradient id="linear-gradient-4" x1="482.07" y1="24.61" x2="502.35" y2="24.61" xlink:href="#linear-gradient-3"/><linearGradient id="linear-gradient-5" x1="481.4" y1="15.27" x2="501.03" y2="15.27" gradientTransform="matrix(-0.99, 0.15, 0.15, 0.99, 519.85, -42.08)" gradientUnits="userSpaceOnUse"><stop offset="0" stop-color="#440338"/><stop offset="1" stop-color="#360338"/></linearGradient><linearGradient id="linear-gradient-6" x1="464.67" y1="87.87" x2="473.76" y2="87.87" gradientTransform="matrix(-1.11, 0.17, 0.18, 1.16, 565.98, -75.77)" xlink:href="#linear-gradient-3"/><linearGradient id="linear-gradient-7" x1="451.09" y1="31.65" x2="455.22" y2="31.65" gradientTransform="matrix(-2.63, 0.41, 0.15, 0.99, 1223.34, -151.54)" xlink:href="#linear-gradient-3"/><filter id="luminosity-noclip-3" x="10.41" y="77.37" width="49.01" height="35.76" filterUnits="userSpaceOnUse" color-interpolation-filters="sRGB"><feFlood flood-color="#fff" result="bg"/><feBlend in="SourceGraphic" in2="bg"/></filter><mask id="mask-3" x="10.41" y="77.37" width="49.01" height="35.76" maskUnits="userSpaceOnUse"><g class="cls-1"><path class="cls-2" d="M13,98c2,4.61,6,8.5,11.18,11.17A36.62,36.62,0,0,0,38.91,113c2.74.15,5.28.16,7.57.09.75,0,1.48,0,2.18-.09a67.14,67.14,0,0,0,10.76-1.31l-.3-1C55.73,112,46,113.79,36.49,112.11c-10.41-1.83-16.3-5.45-19.93-12s-6.6-15.15-5-22.7C9.46,83.78,10.44,92.18,13,98Z"/></g></mask><filter id="luminosity-noclip-4" x="22.23" y="79.51" width="3.75" height="15.35" filterUnits="userSpaceOnUse" color-interpolation-filters="sRGB"><feFlood flood-color="#fff" result="bg"/><feBlend in="SourceGraphic" in2="bg"/></filter><mask id="mask-4" x="22.23" y="79.51" width="3.75" height="15.35" maskUnits="userSpaceOnUse"><g class="cls-3"><path class="cls-4" d="M22.23,79.7c1.12-.18,2,4.52,2.73,8.65s1,6.51,1,6.51a61.08,61.08,0,0,0-.64-8.48C24.7,82.34,23.63,78.63,22.23,79.7Z"/></g></mask><linearGradient id="linear-gradient-8" x1="508.38" y1="51.55" x2="510.43" y2="51.55" gradientTransform="matrix(-0.99, 0.15, 0.15, 0.99, 519.85, -42.08)" gradientUnits="userSpaceOnUse"><stop offset="0" stop-color="#9a163a"/><stop offset="1" stop-color="#8a163a"/></linearGradient></defs><g class="cls-5"><g id="Layer_1" data-name="Layer 1"><path class="cls-6" d="M123,.6c15.89-.11,28.48,13.22,36.72,28a104.67,104.67,0,0,1,12.36,48c.24,16.51-2.94,33.33-15.54,41.48s-34.37,7.51-50.61,6.56-26.49-2.43-37.91-.84-23.89,6-34,3.91S15.9,116.88,9.89,107.25-.23,87,2.48,77.84,14.6,60.91,19.78,49.9s5.77-25.5,13.3-29.83,21.66,1.58,38.38-2.23S107.24.6,123,.6Z"/><path class="cls-7" d="M86.52,89.49c0-.32,2.33-2.66,2.67-2s-1.14,2-1.14,2,3.24-1.58,3.52-1.09-2.47,2.38-2.47,2.38,3.57-1.12,3.66-.57-3.2,2.37-3.2,2.37,2.86-1,3.06-.53-2.74,2.24-2.71,2,2.39-.73,2.55-.13-3.69,1.7-3.69,1.7A10.2,10.2,0,0,1,86.52,89.49Z"/><path class="cls-8" d="M13,98c2,4.61,6,8.5,11.18,11.17A36.62,36.62,0,0,0,38.91,113c2.74.15,5.28.16,7.57.09.75,0,1.48,0,2.18-.09a67.14,67.14,0,0,0,10.76-1.31l-.3-1c-.54-1.69-1.69-5.08-2.4-5.83a11.54,11.54,0,0,1-3.67-.27s-.48-8.1-1.07-12.31a56.31,56.31,0,0,1-.87-8c0-.49.15-.78.35-.83.81-.19,4.89,8.84,9.72,12.28s12.38,5.6,27.58-.16l-.22-.4a25.87,25.87,0,0,1-1.61-3.45,7.84,7.84,0,0,1-.41-2.28c-.34.06-8.17,2.24-15.12-.79S61.69,79.18,59.69,75s-4.5-8.29-14.8-9.55-22-.36-29,5.22a13.8,13.8,0,0,0-4.38,6.71v0C9.46,83.78,10.44,92.18,13,98ZM22.23,79.7c1.12-.18,2,4.52,2.73,8.65s1,6.51,1,6.51h0a15.49,15.49,0,0,1-4-8.14C21.2,82.82,21.1,79.87,22.23,79.7Z"/><path class="cls-9" d="M27.11,57.48a1.72,1.72,0,0,0,2.41.64,17.28,17.28,0,0,0,.57,2.42,7.22,7.22,0,0,0,4.38,4.69l.32.12a7.19,7.19,0,0,0,8-1.42,8.13,8.13,0,0,0,1.29-1.81,11.7,11.7,0,0,0,.79-1.85h0c1.21-3.63.89-7.78.31-9.2a9.33,9.33,0,0,1-4.7,0c-4.14-.77-6.31-1.44-8.2-.42S30.74,54,30.24,55.79s-1.14,1.52-1.84.1a7.6,7.6,0,0,1-.52-1.5C27.1,54.57,26.35,56.09,27.11,57.48Z"/><path class="cls-10" d="M28.1,48c1.11-3.17,3.44-6.1,7.57-6.63s11,1.77,11.06,7.49a2.18,2.18,0,0,1-1.53,2.27,9.34,9.34,0,0,1-4.7,0c-4.15-.78-6.31-1.44-8.21-.42S30.71,54,30.21,55.8s-1.13,1.51-1.84.09a7.38,7.38,0,0,1-.52-1.5A11.75,11.75,0,0,1,28.1,48Z"/><path class="cls-11" d="M55.56,104.54s4-3.31,4.54-2.76S59,104,59,104s5.67-2.23,6.1-1.45-5,3.11-5,3.11,5.8-1.16,6-.22c.09.59-5.67,2.87-5.67,2.87s4.75-.81,4.95-.07c.16.57-4.42,2.18-4.42,2.18s3.32,0,3.36.61-5.63,1.44-5.63,1.44-1.11-3.23-1.79-5S55.56,104.54,55.56,104.54Z"/><path class="cls-12" d="M40.51,64.28c.26,0,.53,0,.8.06.63,2.86,2.61,4.77-.38,5.68-3.16,1-6.66-1.17-7.91-3.19a45.21,45.21,0,0,1-2.81-6.31h0C31.58,62.64,34.47,63.79,40.51,64.28Z"/><g class="cls-13"><path class="cls-14" d="M13,98c2,4.61,6,8.5,11.18,11.17A36.62,36.62,0,0,0,38.91,113c2.74.15,5.28.16,7.57.09.75,0,1.48,0,2.18-.09a67.14,67.14,0,0,0,10.76-1.31l-.3-1C55.73,112,46,113.79,36.49,112.11c-10.41-1.83-16.3-5.45-19.93-12s-6.6-15.15-5-22.7C9.46,83.78,10.44,92.18,13,98Z"/></g><g class="cls-15"><path class="cls-16" d="M22.23,79.7c1.12-.18,2,4.52,2.73,8.65s1,6.51,1,6.51a61.08,61.08,0,0,0-.64-8.48C24.7,82.34,23.63,78.63,22.23,79.7Z"/></g><path class="cls-17" d="M45.1,54.83a2.56,2.56,0,0,0-.16-.24,3.46,3.46,0,0,0-.61-.62,3.69,3.69,0,0,0-1.18-.63,2.25,2.25,0,0,0-.88-.1,1.52,1.52,0,0,0-.94.44,1.68,1.68,0,0,0-.19.24l-.11.21a2.09,2.09,0,0,0-.21.45c0,.17-.12.35-.16.52s0,.35-.08.52a13.21,13.21,0,0,0-.08,2.19,15.79,15.79,0,0,1,0,2.28,1.85,1.85,0,0,1-.16.52c-.07.15-.19.29-.3.27a.41.41,0,0,1-.3-.28,3.49,3.49,0,0,1-.15-.54,20.19,20.19,0,0,1-.27-2.34c-.06-.78-.12-1.56-.2-2.3,0-.38-.08-.75-.15-1.12a2.19,2.19,0,0,0-.49-1.06,2.25,2.25,0,0,0-.92-.61,3.27,3.27,0,0,0-.47-.16,2.3,2.3,0,0,0-.26-.07l-.23,0a2.23,2.23,0,0,0-1.7.55,4.36,4.36,0,0,0-.86,1,5,5,0,0,0-.52,1,.11.11,0,0,0,.08.14.11.11,0,0,0,.14,0l.15-.23c.1-.15.25-.37.46-.64a5.18,5.18,0,0,1,.85-.83,1.93,1.93,0,0,1,1.33-.42,2.82,2.82,0,0,1,1.57.7,3.56,3.56,0,0,1,.58,1.89c.11.73.19,1.5.28,2.28s.17,1.58.33,2.37a3.26,3.26,0,0,0,.19.61.66.66,0,0,0,.56.44.49.49,0,0,0,.36-.14,1,1,0,0,0,.21-.28,2,2,0,0,0,.2-.61A6.06,6.06,0,0,0,40.9,59c0-.39,0-.76,0-1.14a13.73,13.73,0,0,1,.2-2.1c0-.16.07-.32.1-.47s.1-.28.14-.41a2,2,0,0,1,.19-.42l.11-.19.1-.11A1.27,1.27,0,0,1,43,53.92a4.47,4.47,0,0,1,1.07.45,4.9,4.9,0,0,1,.64.43l.22.18a.12.12,0,0,0,.17,0,.12.12,0,0,0,0-.13Z"/><path class="cls-18" d="M39.36,64.39a2.65,2.65,0,0,0,.84-.3.11.11,0,0,0,0-.16.11.11,0,0,0-.16,0,2,2,0,0,1-1.34.23,1,1,0,0,1-.59-.62.11.11,0,0,0-.15-.06.11.11,0,0,0-.07.15,1.17,1.17,0,0,0,.74.75A1.47,1.47,0,0,0,39.36,64.39Z"/><path class="cls-19" d="M41.67,62.74a2.48,2.48,0,0,0,1.16,1.19,8.13,8.13,0,0,0,1.29-1.81,11.7,11.7,0,0,0,.79-1.85h0a1.73,1.73,0,0,0-.89-.79C42,58.66,41.2,61.63,41.67,62.74Z"/><path class="cls-19" d="M33.81,58.67A2.33,2.33,0,0,1,36.24,62c-.87,2.18-3.25,1.33-4,0A2.06,2.06,0,0,1,33.81,58.67Z"/><path class="cls-20" d="M42.14,55.91a3.54,3.54,0,0,1,.15-.41,1.5,1.5,0,0,1,.3-.44.92.92,0,0,1,.6-.31h.21l.13,0h.1l0,0h0l.14.06a2.43,2.43,0,0,1,.48.34,3.24,3.24,0,0,1,.35.42,3.49,3.49,0,0,1,.38.82,3.76,3.76,0,0,1,.15.61,1.76,1.76,0,0,0,0,.21v0a.12.12,0,1,1-.21.11v0a2.08,2.08,0,0,1-.11-.21c-.06-.13-.15-.31-.27-.52l-.23-.38a2,2,0,0,1-.16,1c-.27.57-1,.32-1.05-.46a1.66,1.66,0,0,1,.33-1.33l-.05,0H43.4s-.1,0-.12,0h0a.4.4,0,0,0-.24.11,1.27,1.27,0,0,0-.23.28,2.48,2.48,0,0,0-.18.31c-.11.21-.18.4-.24.53l-.08.21h0a.16.16,0,0,1-.1.08.12.12,0,0,1-.13-.12,1.4,1.4,0,0,1,0-.23A3,3,0,0,1,42.14,55.91Z"/><path class="cls-20" d="M35.12,55.15a1.6,1.6,0,0,1,.2-.68,1.46,1.46,0,0,1,.33-.39,1.12,1.12,0,0,1,.54-.25,1.71,1.71,0,0,1,.31,0l.33,0,.25.08a1.24,1.24,0,0,1,.28.12,1.86,1.86,0,0,1,.5.32,2.27,2.27,0,0,1,.39.43,2.41,2.41,0,0,1,.34.93,3.85,3.85,0,0,1,0,.67.47.47,0,0,1,0,.16v.06a.13.13,0,0,1-.06.12.12.12,0,0,1-.16,0v0s0,0,0-.07a1.3,1.3,0,0,0,0-.19,3.14,3.14,0,0,0-.14-.58,2.14,2.14,0,0,0-.34-.65,1.75,1.75,0,0,1-.23,1.51c-.41.36-.82-.06-.85-.76a2.29,2.29,0,0,1,.33-1.34l-.15-.06-.26-.07-.17,0h-.19a.82.82,0,0,0-.31.11,1,1,0,0,0-.25.21,2,2,0,0,0-.3.49l-.09.2h0a.14.14,0,0,1-.1.08.12.12,0,0,1-.13-.11A1.29,1.29,0,0,1,35.12,55.15Z"/><rect class="cls-21" x="67.34" y="34.08" width="83.09" height="53.5" rx="4.46"/><rect class="cls-22" x="68.99" y="36.13" width="79.79" height="49.39" rx="4.05"/><g class="cls-23"><path class="cls-24" d="M69,41.85V37.64a1.52,1.52,0,0,1,1.51-1.51h76.77a1.51,1.51,0,0,1,1.51,1.51v4.21Z"/></g><path class="cls-24" d="M72.6,39.27a.71.71,0,0,1-.71.71.7.7,0,0,1-.7-.71.7.7,0,0,1,.7-.7A.7.7,0,0,1,72.6,39.27Z"/><g class="cls-23"><path class="cls-24" d="M75,39.27a.71.71,0,0,1-.71.71.7.7,0,0,1-.7-.71.7.7,0,0,1,.7-.7A.7.7,0,0,1,75,39.27Z"/></g><path class="cls-22" d="M77.22,39.27a.71.71,0,1,1-1.41,0,.71.71,0,0,1,1.41,0Z"/><g class="cls-25"><rect class="cls-24" x="86.03" y="47.17" width="44.96" height="31.69" rx="2.61"/></g><rect class="cls-22" x="88.8" y="49.99" width="7.83" height="7.25" rx="1.14"/><path class="cls-24" d="M94.81,53.65a2.1,2.1,0,1,1-2.09-2.09A2.1,2.1,0,0,1,94.81,53.65Z"/><path class="cls-22" d="M102.86,51.5h-4.8a.23.23,0,0,1-.23-.23h0a.23.23,0,0,1,.23-.23h4.8a.23.23,0,0,1,.23.23h0A.23.23,0,0,1,102.86,51.5Z"/><path class="cls-26" d="M104.66,52.82h-6.6a.23.23,0,0,1-.23-.23h0a.23.23,0,0,1,.23-.23h6.6a.23.23,0,0,1,.23.23h0A.23.23,0,0,1,104.66,52.82Z"/><path class="cls-26" d="M104.66,53.94h-6.6a.23.23,0,0,1-.23-.23h0a.23.23,0,0,1,.23-.23h6.6a.23.23,0,0,1,.23.23h0A.23.23,0,0,1,104.66,53.94Z"/><path class="cls-26" d="M104.66,55.06h-6.6a.23.23,0,0,1-.23-.23h0a.23.23,0,0,1,.23-.23h6.6a.23.23,0,0,1,.23.23h0A.23.23,0,0,1,104.66,55.06Z"/><path class="cls-26" d="M101.21,56.18H98.06a.23.23,0,0,1-.23-.23h0a.23.23,0,0,1,.23-.23h3.15a.23.23,0,0,1,.23.23h0A.23.23,0,0,1,101.21,56.18Z"/><rect class="cls-22" x="108.45" y="51" width="11.72" height="10.86" rx="1.71"/><rect class="cls-27" x="111.53" y="53.68" width="5.56" height="5.56"/><rect class="cls-22" x="108.45" y="63.77" width="11.72" height="10.86" rx="1.71"/><path class="cls-28" d="M114.31,72h0a2.79,2.79,0,0,1-2.78-2.78h0a2.78,2.78,0,0,1,2.78-2.78h0a2.77,2.77,0,0,1,2.78,2.78h0A2.78,2.78,0,0,1,114.31,72Z"/><path class="cls-22" d="M126.2,56.21h-4.8a.23.23,0,0,1-.23-.24h0a.23.23,0,0,1,.23-.23h4.8a.23.23,0,0,1,.23.23h0A.23.23,0,0,1,126.2,56.21Z"/><path class="cls-26" d="M128,57.53H121.4a.23.23,0,0,1-.23-.24h0a.23.23,0,0,1,.23-.23H128a.24.24,0,0,1,.24.23h0A.24.24,0,0,1,128,57.53Z"/><path class="cls-26" d="M128,58.65H121.4a.23.23,0,0,1-.23-.24h0a.23.23,0,0,1,.23-.23H128a.24.24,0,0,1,.24.23h0A.24.24,0,0,1,128,58.65Z"/><path class="cls-26" d="M128,59.77H121.4a.23.23,0,0,1-.23-.23h0a.23.23,0,0,1,.23-.24H128a.24.24,0,0,1,.24.24h0A.24.24,0,0,1,128,59.77Z"/><path class="cls-26" d="M124.55,60.89H121.4a.23.23,0,0,1-.23-.23h0a.23.23,0,0,1,.23-.24h3.15a.24.24,0,0,1,.23.24h0A.24.24,0,0,1,124.55,60.89Z"/><path class="cls-22" d="M126.2,69.06h-4.8a.23.23,0,0,1-.23-.23h0a.23.23,0,0,1,.23-.23h4.8a.23.23,0,0,1,.23.23h0A.23.23,0,0,1,126.2,69.06Z"/><path class="cls-26" d="M128,70.38H121.4a.23.23,0,0,1-.23-.23h0a.23.23,0,0,1,.23-.23H128a.23.23,0,0,1,.24.23h0A.23.23,0,0,1,128,70.38Z"/><path class="cls-26" d="M128,71.5H121.4a.23.23,0,0,1-.23-.23h0a.23.23,0,0,1,.23-.23H128a.23.23,0,0,1,.24.23h0A.23.23,0,0,1,128,71.5Z"/><path class="cls-26" d="M128,72.62H121.4a.23.23,0,0,1-.23-.23h0a.23.23,0,0,1,.23-.23H128a.23.23,0,0,1,.24.23h0A.23.23,0,0,1,128,72.62Z"/><rect class="cls-26" x="121.17" y="73.28" width="3.61" height="0.47" rx="0.16"/><rect class="cls-22" x="88.8" y="59.38" width="7.83" height="7.25" rx="1.14"/><rect class="cls-29" x="90.86" y="61.14" width="3.72" height="3.72"/><path class="cls-22" d="M102.86,60.9h-4.8a.23.23,0,0,1-.23-.23h0a.23.23,0,0,1,.23-.23h4.8a.23.23,0,0,1,.23.23h0A.23.23,0,0,1,102.86,60.9Z"/><path class="cls-26" d="M104.66,62.22h-6.6a.23.23,0,0,1-.23-.23h0a.23.23,0,0,1,.23-.23h6.6a.23.23,0,0,1,.23.23h0A.23.23,0,0,1,104.66,62.22Z"/><path class="cls-26" d="M104.66,63.34h-6.6a.23.23,0,0,1-.23-.23h0a.23.23,0,0,1,.23-.23h6.6a.23.23,0,0,1,.23.23h0A.23.23,0,0,1,104.66,63.34Z"/><path class="cls-26" d="M104.66,64.46h-6.6a.23.23,0,0,1-.23-.23h0a.23.23,0,0,1,.23-.23h6.6a.23.23,0,0,1,.23.23h0A.23.23,0,0,1,104.66,64.46Z"/><path class="cls-26" d="M101.21,65.58H98.06a.23.23,0,0,1-.23-.23h0a.23.23,0,0,1,.23-.23h3.15a.23.23,0,0,1,.23.23h0A.23.23,0,0,1,101.21,65.58Z"/><rect class="cls-22" x="88.8" y="68.78" width="7.83" height="7.25" rx="1.14"/><polygon class="cls-24" points="93.82 70.54 91.61 70.54 90.5 72.46 91.61 74.38 93.82 74.38 94.93 72.46 93.82 70.54"/><path class="cls-22" d="M102.86,70.3h-4.8a.23.23,0,0,1-.23-.23h0a.23.23,0,0,1,.23-.23h4.8a.23.23,0,0,1,.23.23h0A.23.23,0,0,1,102.86,70.3Z"/><path class="cls-26" d="M104.66,71.62h-6.6a.23.23,0,0,1-.23-.23h0a.23.23,0,0,1,.23-.23h6.6a.23.23,0,0,1,.23.23h0A.23.23,0,0,1,104.66,71.62Z"/><path class="cls-26" d="M104.66,72.74h-6.6a.23.23,0,0,1-.23-.23h0a.23.23,0,0,1,.23-.23h6.6a.23.23,0,0,1,.23.23h0A.23.23,0,0,1,104.66,72.74Z"/><path class="cls-26" d="M104.66,73.86h-6.6a.23.23,0,0,1-.23-.23h0a.23.23,0,0,1,.23-.23h6.6a.23.23,0,0,1,.23.23h0A.23.23,0,0,1,104.66,73.86Z"/><path class="cls-26" d="M101.21,75H98.06a.23.23,0,0,1-.23-.23h0a.23.23,0,0,1,.23-.23h3.15a.23.23,0,0,1,.23.23h0A.23.23,0,0,1,101.21,75Z"/><path class="cls-30" d="M133.22,83H98.8a2.71,2.71,0,0,0-2.89,2.47l-8,21.67-17,3,15.86.2,0,.08h40.19l9.18-24.92A2.7,2.7,0,0,0,133.22,83Z"/><path class="cls-26" d="M133.22,83H98.8a2.71,2.71,0,0,0-2.89,2.47l-8,21.67-17,3,15.86.2,0,.08h40.19l9.18-24.92A2.7,2.7,0,0,0,133.22,83Z"/><circle class="cls-31" cx="112.99" cy="96.03" r="4.26" transform="translate(-35.28 94.08) rotate(-39.61)"/><rect class="cls-21" x="19.9" y="109.75" width="123.19" height="3.45" rx="1.21"/><path class="cls-32" d="M52.83,27.34H62a3.29,3.29,0,0,1,3.29,3.29v2.8A3.29,3.29,0,0,1,62,36.72H52.83a3.29,3.29,0,0,1-3.29-3.29v-2.8a3.28,3.28,0,0,1,3.28-3.28Z"/><rect class="cls-21" x="68.12" y="22.63" width="19.24" height="8.09" rx="2.83"/><rect class="cls-32" x="146.91" y="57.77" width="18.27" height="8.09" rx="2.83"/><path class="cls-22" d="M155.07,61h-5.16a.44.44,0,0,1-.44-.43h0a.44.44,0,0,1,.44-.44h5.16a.44.44,0,0,1,.43.44h0A.43.43,0,0,1,155.07,61Z"/><path class="cls-22" d="M160.24,63.34H149.91a.44.44,0,0,1-.44-.44h0a.44.44,0,0,1,.44-.43h10.33a.44.44,0,0,1,.44.43h0A.44.44,0,0,1,160.24,63.34Z"/><rect class="cls-21" x="146.91" y="45.84" width="16.59" height="9.37" rx="3.29"/><path class="cls-22" d="M155.44,48.75H149.3a.35.35,0,0,1-.35-.35h0a.35.35,0,0,1,.35-.35h6.14a.35.35,0,0,1,.35.35h0A.35.35,0,0,1,155.44,48.75Z"/><path class="cls-26" d="M159.57,50.61H149.3a.35.35,0,0,1-.35-.35h0a.35.35,0,0,1,.35-.34h10.27a.34.34,0,0,1,.34.34h0A.35.35,0,0,1,159.57,50.61Z"/><path class="cls-26" d="M159.57,52.58H149.3a.35.35,0,0,1-.35-.35h0a.35.35,0,0,1,.35-.34h10.27a.34.34,0,0,1,.34.34h0A.35.35,0,0,1,159.57,52.58Z"/><path class="cls-26" d="M77.25,25.86H71.12a.44.44,0,0,1-.44-.43h0a.44.44,0,0,1,.44-.44h6.13a.44.44,0,0,1,.43.44h0A.43.43,0,0,1,77.25,25.86Z"/><path class="cls-22" d="M82.42,28.2H71.12a.44.44,0,0,1-.44-.44h0a.44.44,0,0,1,.44-.43h11.3a.44.44,0,0,1,.44.43h0A.44.44,0,0,1,82.42,28.2Z"/><path class="cls-22" d="M57.23,30.25h-5.3a.34.34,0,0,1-.34-.35h0a.34.34,0,0,1,.34-.34h5.3a.34.34,0,0,1,.35.34h0A.34.34,0,0,1,57.23,30.25Z"/><path class="cls-26" d="M61.36,32.11H51.93a.34.34,0,0,1-.34-.34h0a.35.35,0,0,1,.34-.35h9.43a.35.35,0,0,1,.34.35h0A.34.34,0,0,1,61.36,32.11Z"/><path class="cls-26" d="M61.36,34.08H51.93a.34.34,0,0,1-.34-.34h0a.35.35,0,0,1,.34-.35h9.43a.35.35,0,0,1,.34.35h0A.34.34,0,0,1,61.36,34.08Z"/></g></g></svg>